<svg xmlns="http://www.w3.org/2000/svg" viewBox="0 0 400 300">
  <rect width="400" height="300" fill="#FDF5E6"/>
  <ellipse cx="200" cy="195" rx="55" ry="13" fill="#8B4513" opacity="0.1"/>
  <path d="M135 100 L135 175 Q135 195 200 195 Q265 195 265 175 L265 100 Z" fill="#FFFFFF"/>
  <path d="M135 100 L265 100 L250 75 L150 75 Z" fill="#8B4513"/>
  <ellipse cx="200" cy="100" rx="65" ry="13" fill="#5D4037"/>
  <ellipse cx="200" cy="105" rx="55" ry="6" fill="#FFFFFF" opacity="0.4"/>
  <path d="M265 115 Q295 110 295 140 Q295 170 265 160" fill="none" stroke="#FFFFFF" stroke-width="6" stroke-linecap="round"/>
  <rect x="170" y="55" width="18" height="25" rx="4" fill="#FFFFFF"/>
  <rect x="195" y="50" width="18" height="30" rx="4" fill="#FFFFFF"/>
  <rect x="220" y="58" width="18" height="22" rx="4" fill="#FFFFFF"/>
</svg>